<?xml version="1.0" standalone="no"?>
<!DOCTYPE svg PUBLIC "-//W3C//DTD SVG 20010904//EN"
 "http://www.w3.org/TR/2001/REC-SVG-20010904/DTD/svg10.dtd">
<svg version="1.0" xmlns="http://www.w3.org/2000/svg"
 width="642.000000pt" height="642.000000pt" viewBox="0 0 642.000000 642.000000"
 preserveAspectRatio="xMidYMid meet">
<metadata>
Created by potrace 1.11, written by Peter Selinger 2001-2013
</metadata>
<g transform="translate(0.000000,642.000000) scale(0.100000,-0.100000)"
fill="#000000" stroke="none">
<path d="M3175 5923 c-14 -27 -30 -55 -35 -63 -17 -25 -130 -221 -130 -225 0
-2 -17 -32 -38 -66 -22 -35 -50 -84 -64 -109 -14 -25 -55 -96 -92 -158 -36
-62 -66 -115 -66 -118 0 -3 -8 -17 -19 -32 -10 -15 -112 -189 -227 -387 -114
-198 -360 -623 -547 -945 -187 -322 -348 -601 -359 -620 -10 -19 -28 -51 -39
-70 -28 -46 -447 -768 -514 -885 -29 -49 -85 -146 -125 -215 -40 -69 -83 -143
-95 -165 -13 -22 -45 -78 -72 -125 -28 -47 -82 -141 -122 -210 -39 -69 -76
-132 -81 -140 -139 -236 -540 -932 -540 -938 0 -4 1440 -7 3200 -7 2168 0
3200 3 3200 10 0 6 -11 27 -25 47 -14 20 -25 39 -25 41 0 2 -44 80 -98 173
-54 93 -110 189 -124 214 -14 25 -71 123 -127 218 -55 96 -101 178 -101 183 0
5 -4 9 -10 9 -5 0 -10 4 -10 9 0 7 -271 482 -319 561 -12 18 -196 336 -229
394 -13 23 -33 57 -44 76 -11 19 -86 148 -166 285 -80 138 -156 268 -168 290
-13 22 -44 76 -69 120 -26 44 -54 94 -64 110 -10 17 -29 50 -43 75 -35 61
-226 391 -304 523 -35 60 -64 110 -64 112 0 3 -17 33 -38 67 -21 35 -50 84
-65 110 -14 26 -88 154 -165 285 -76 131 -142 245 -145 253 -4 8 -15 27 -25
42 -15 23 -64 107 -112 193 -22 38 -408 705 -420 725 -5 8 -34 58 -64 110 -81
139 -81 139 -127 218 -23 39 -45 72 -50 72 -5 0 -20 -21 -34 -47z"/>
</g>
</svg>
